<?xml version="1.0" encoding="UTF-8"?>
<svg xmlns="http://www.w3.org/2000/svg" xmlns:xlink="http://www.w3.org/1999/xlink" viewBox="0 0 50 50" width="50px" height="50px">
<g id="surface79738706">
<path style=" stroke:none;fill-rule:nonzero;fill:rgb(92.54902%,94.117647%,94.509804%);fill-opacity:1;" d="M 23.9375 0.0625 C 28.601562 0.542969 32.78125 3.761719 34.25 8.5 L 34.25 8.53125 C 34.433594 9.171875 35.5625 12.8125 35.5625 12.8125 C 35.695312 13.160156 35.621094 13.550781 35.375 13.832031 C 35.128906 14.109375 34.75 14.226562 34.386719 14.136719 C 34.027344 14.050781 33.746094 13.765625 33.65625 13.40625 C 33.65625 13.40625 32.570312 9.886719 32.34375 9.09375 C 32.34375 9.089844 32.34375 9.066406 32.34375 9.0625 C 30.695312 3.796875 25.050781 0.832031 19.78125 2.46875 C 14.5 4.109375 11.519531 9.722656 13.15625 15 L 13.125 15 C 13.511719 16.074219 14.441406 19.007812 14.75 20 L 41 20 C 42.644531 20 44 21.355469 44 23 L 44 28.691406 C 43.355469 28.460938 42.6875 28.285156 42 28.167969 L 42 23 C 42 22.445312 41.554688 22 41 22 L 9 22 C 8.445312 22 8 22.445312 8 23 L 8 47 C 8 47.554688 8.445312 48 9 48 L 31.074219 48 C 31.757812 48.761719 32.535156 49.433594 33.386719 50 L 9 50 C 7.355469 50 6 48.644531 6 47 L 6 23 C 6 21.355469 7.355469 20 9 20 L 12.625 20 C 12.199219 18.617188 11.507812 16.367188 11.25 15.65625 L 11.25 15.59375 C 9.289062 9.269531 12.902344 2.492188 19.21875 0.53125 C 20.40625 0.164062 21.605469 -0.00390625 22.78125 0 C 23.171875 0 23.550781 0.0234375 23.9375 0.0625 Z M 28 33 C 28 33.898438 27.601562 34.6875 27 35.1875 L 27 38 C 27 39.101562 26.101562 40 25 40 C 23.898438 40 23 39.101562 23 38 L 23 35.1875 C 22.398438 34.6875 22 33.898438 22 33 C 22 31.300781 23.300781 30 25 30 C 26.699219 30 28 31.300781 28 33 Z M 28 33 "/>
<path style=" stroke:none;fill-rule:nonzero;fill:rgb(80.000001%,80.000001%,80.000001%);fill-opacity:1;" d="M 45.898438 40 C 45.898438 40.601562 45.5 41 44.898438 41 L 41 41 L 41 44.898438 C 41 45.5 40.601562 45.898438 40 45.898438 C 39.398438 45.898438 39 45.5 39 44.898438 L 39 41 L 35.101562 41 C 34.5 41 34.101562 40.601562 34.101562 40 C 34.101562 39.398438 34.5 39 35.101562 39 L 39 39 L 39 35.101562 C 39 34.5 39.398438 34.101562 40 34.101562 C 40.601562 34.101562 41 34.5 41 35.101562 L 41 39 L 44.898438 39 C 45.5 39 45.898438 39.398438 45.898438 40 Z M 50 40 C 50 45.5 45.5 50 40 50 C 34.5 50 30 45.5 30 40 C 30 34.5 34.5 30 40 30 C 45.5 30 50 34.5 50 40 Z M 48 40 C 48 35.601562 44.398438 32 40 32 C 35.601562 32 32 35.601562 32 40 C 32 44.398438 35.601562 48 40 48 C 44.398438 48 48 44.398438 48 40 Z M 48 40 "/>
</g>
</svg>
